<svg width="183" height="34" viewBox="0 0 183 34" fill="none" xmlns="http://www.w3.org/2000/svg">
<path d="M6.316 20.96V15.776H15.064V10.844H6.316V5.84H16V0.799998H0.88V26H16.396V20.96H6.316ZM35.9738 6.56L35.1098 8.504C33.4178 6.956 31.1858 6.02 28.6658 6.02C23.2298 6.02 18.9818 10.34 18.9818 15.776C18.9818 21.248 23.2298 25.532 28.6658 25.532C30.7538 25.532 32.6618 24.884 34.2098 23.804V24.524C34.2098 27.368 32.0138 29.096 29.3498 29.096C27.4058 29.096 25.3538 28.196 24.7418 26.432H19.5218C20.4218 30.86 24.1658 33.56 29.4218 33.56C35.5778 33.56 39.3578 29.852 39.3578 23.768V6.596L35.9738 6.56ZM29.2778 20.816C26.3978 20.816 24.3098 18.692 24.3098 15.812C24.3098 12.896 26.3978 10.772 29.2778 10.772C32.1578 10.772 34.2458 12.896 34.2458 15.812C34.2458 18.692 32.1578 20.816 29.2778 20.816ZM57.8582 6.56L52.9982 18.548L47.8142 6.56H42.0902L50.3342 24.524L50.2622 24.668C49.0742 27.62 48.4262 28.304 45.8702 28.304H44.0702V33.02H46.2302C50.5862 33.02 52.6382 31.04 54.9782 25.748L63.4382 6.56H57.8582ZM76.6704 6.02C74.2584 6.02 72.0984 6.884 70.4424 8.36L69.5424 6.56H66.0864V33.02H71.3424V24.956C72.8184 26 74.6544 26.612 76.6704 26.612C82.5384 26.612 86.8584 22.184 86.8584 16.28C86.8584 10.412 82.5384 6.02 76.6704 6.02ZM76.2384 21.608C73.1784 21.608 70.9464 19.34 70.9464 16.28C70.9464 13.256 73.1784 10.952 76.2384 10.952C79.2984 10.952 81.5304 13.256 81.5304 16.28C81.5304 19.34 79.2984 21.608 76.2384 21.608ZM99.8482 21.32C97.9042 21.32 96.8242 20.24 96.8242 18.368V10.808H102.116V6.56H96.7522V1.52H95.7442L88.0762 9.656V10.808H91.5682V19.088C91.5682 23.372 94.1962 26 98.4802 26H102.224V21.32H99.8482ZM123.525 0.799998H104.049V5.876H111.069V26H116.505V5.876H123.525V0.799998ZM133.381 26.576C139.393 26.576 143.893 22.148 143.893 16.28C143.893 10.412 139.393 6.02 133.381 6.02C127.369 6.02 122.869 10.412 122.869 16.28C122.869 22.148 127.369 26.576 133.381 26.576ZM133.381 21.608C130.357 21.608 128.197 19.448 128.197 16.28C128.197 13.148 130.357 10.952 133.381 10.952C136.405 10.952 138.565 13.148 138.565 16.28C138.565 19.448 136.405 21.608 133.381 21.608ZM156.54 26.576C162.048 26.576 165.684 23.048 165.684 17.792V6.56H160.428V17.216C160.428 19.952 158.988 21.608 156.54 21.608C154.128 21.608 152.652 19.988 152.652 17.216V6.56H147.396V17.792C147.396 23.048 151.068 26.576 156.54 26.576ZM180.401 6.452C177.881 6.452 176.153 7.244 174.749 8.972L173.813 6.56H170.465V26H175.721V15.92C175.721 12.752 176.873 11.42 179.825 11.42H182.129V6.452H180.401Z" fill="white"/>
</svg>
