<svg width="40" height="40" viewBox="0 0 40 40" fill="none" xmlns="http://www.w3.org/2000/svg">
<path d="M14.1524 15.9977C15.1594 15.9977 15.9758 15.1814 15.9758 14.1744C15.9758 13.1674 15.1594 12.3511 14.1524 12.3511C13.1454 12.3511 12.3291 13.1674 12.3291 14.1744C12.3291 15.1814 13.1454 15.9977 14.1524 15.9977Z" fill="#FF5029"/>
<path d="M17.6974 17.3794V27.4952H20.8383V22.4927C20.8383 21.1727 21.0866 19.8944 22.7233 19.8944C24.3374 19.8944 24.3574 21.4036 24.3574 22.5761V27.4961H27.4999V21.9486C27.4999 19.2236 26.9133 17.1294 23.7283 17.1294C22.1991 17.1294 21.1741 17.9686 20.7549 18.7627H20.7124V17.3794H17.6974ZM12.5791 17.3794H15.7249V27.4952H12.5791V17.3794Z" fill="#FF5029"/>
<circle cx="20" cy="20" r="19.5" stroke="#FF5029"/>
</svg>
