<svg width="40" height="40" viewBox="0 0 40 40" fill="none" xmlns="http://www.w3.org/2000/svg">
<path d="M19.999 16.1475C17.8707 16.1475 16.1465 17.8725 16.1465 20C16.1465 22.1283 17.8707 23.8533 19.999 23.8533C22.1257 23.8533 23.8515 22.1283 23.8515 20C23.8515 17.8725 22.1257 16.1475 19.999 16.1475ZM19.999 22.5033C18.6165 22.5033 17.4957 21.3825 17.4957 20.0008C17.4957 18.6183 18.6165 17.4983 19.999 17.4983C21.3815 17.4983 22.5007 18.6183 22.5007 20.0008C22.5007 21.3825 21.3815 22.5033 19.999 22.5033Z" fill="#FF5029"/>
<path d="M24.0048 16.9041C24.5009 16.9041 24.9031 16.5019 24.9031 16.0058C24.9031 15.5096 24.5009 15.1074 24.0048 15.1074C23.5086 15.1074 23.1064 15.5096 23.1064 16.0058C23.1064 16.5019 23.5086 16.9041 24.0048 16.9041Z" fill="#FF5029"/>
<path d="M27.1106 15.0927C26.7198 14.0852 25.924 13.2886 24.9165 12.8994C24.334 12.6802 23.7181 12.5627 23.0948 12.5494C22.2923 12.5144 22.0381 12.5044 20.0031 12.5044C17.9681 12.5044 17.7073 12.5044 16.9115 12.5494C16.2898 12.5619 15.674 12.6794 15.0915 12.8994C14.0831 13.2886 13.2873 14.0852 12.8973 15.0927C12.6781 15.6761 12.5606 16.2911 12.5481 16.9144C12.5123 17.7161 12.5015 17.9702 12.5015 20.0061C12.5015 22.0411 12.5015 22.3002 12.5481 23.0977C12.5606 23.7211 12.6781 24.3361 12.8973 24.9202C13.2881 25.9269 14.084 26.7236 15.0923 27.1136C15.6723 27.3402 16.2881 27.4686 16.9131 27.4886C17.7156 27.5236 17.9698 27.5344 20.0048 27.5344C22.0398 27.5344 22.3006 27.5344 23.0965 27.4886C23.719 27.4761 24.3348 27.3577 24.9181 27.1394C25.9256 26.7486 26.7215 25.9527 27.1123 24.9452C27.3315 24.3619 27.449 23.7469 27.4615 23.1236C27.4973 22.3219 27.5081 22.0677 27.5081 20.0319C27.5081 17.9961 27.5081 17.7377 27.4615 16.9402C27.4506 16.3086 27.334 15.6827 27.1106 15.0927ZM26.0956 23.0361C26.0898 23.5161 26.0031 23.9919 25.8365 24.4427C25.5823 25.0986 25.0648 25.6169 24.4098 25.8686C23.964 26.0344 23.494 26.1211 23.0181 26.1277C22.2265 26.1644 22.0031 26.1736 19.9731 26.1736C17.9415 26.1736 17.734 26.1736 16.9273 26.1277C16.4531 26.1219 15.9815 26.0344 15.5365 25.8686C14.879 25.6177 14.3581 25.0994 14.104 24.4427C13.9406 23.9977 13.8523 23.5269 13.8448 23.0519C13.809 22.2602 13.8006 22.0369 13.8006 20.0069C13.8006 17.9761 13.8006 17.7686 13.8448 16.9611C13.8506 16.4811 13.9373 16.0061 14.104 15.5552C14.3581 14.8977 14.879 14.3802 15.5365 14.1286C15.9815 13.9636 16.4531 13.8761 16.9273 13.8694C17.7198 13.8336 17.9423 13.8236 19.9731 13.8236C22.004 13.8236 22.2123 13.8236 23.0181 13.8694C23.494 13.8752 23.964 13.9627 24.4098 14.1286C25.0648 14.3811 25.5823 14.8994 25.8365 15.5552C25.9998 16.0002 26.0881 16.4711 26.0956 16.9461C26.1315 17.7386 26.1406 17.9611 26.1406 19.9919C26.1406 22.0219 26.1406 22.2402 26.1048 23.0369H26.0956V23.0361Z" fill="#FF5029"/>
<circle cx="20" cy="20" r="19.5" stroke="#FF5029"/>
</svg>
