<svg width="142" height="26" viewBox="0 0 142 26" fill="none" xmlns="http://www.w3.org/2000/svg">
<path d="M4.468 16.08V12.048H11.272V8.212H4.468V4.32H12V0.399999H0.24V20H12.308V16.08H4.468ZM27.5352 4.88L26.8632 6.392C25.5472 5.188 23.8112 4.46 21.8512 4.46C17.6232 4.46 14.3192 7.82 14.3192 12.048C14.3192 16.304 17.6232 19.636 21.8512 19.636C23.4752 19.636 24.9592 19.132 26.1632 18.292V18.852C26.1632 21.064 24.4552 22.408 22.3832 22.408C20.8712 22.408 19.2752 21.708 18.7992 20.336H14.7392C15.4392 23.78 18.3512 25.88 22.4392 25.88C27.2272 25.88 30.1672 22.996 30.1672 18.264V4.908L27.5352 4.88ZM22.3272 15.968C20.0872 15.968 18.4632 14.316 18.4632 12.076C18.4632 9.808 20.0872 8.156 22.3272 8.156C24.5672 8.156 26.1912 9.808 26.1912 12.076C26.1912 14.316 24.5672 15.968 22.3272 15.968ZM44.5563 4.88L40.7763 14.204L36.7443 4.88H32.2923L38.7043 18.852L38.6483 18.964C37.7243 21.26 37.2203 21.792 35.2323 21.792H33.8323V25.46H35.5123C38.9003 25.46 40.4963 23.92 42.3163 19.804L48.8963 4.88H44.5563ZM59.1881 4.46C57.3121 4.46 55.6321 5.132 54.3441 6.28L53.6441 4.88H50.9561V25.46H55.0441V19.188C56.1921 20 57.6201 20.476 59.1881 20.476C63.7521 20.476 67.1121 17.032 67.1121 12.44C67.1121 7.876 63.7521 4.46 59.1881 4.46ZM58.8521 16.584C56.4721 16.584 54.7361 14.82 54.7361 12.44C54.7361 10.088 56.4721 8.296 58.8521 8.296C61.2321 8.296 62.9681 10.088 62.9681 12.44C62.9681 14.82 61.2321 16.584 58.8521 16.584ZM77.2153 16.36C75.7033 16.36 74.8633 15.52 74.8633 14.064V8.184H78.9793V4.88H74.8073V0.96H74.0233L68.0593 7.288V8.184H70.7753V14.624C70.7753 17.956 72.8193 20 76.1513 20H79.0633V16.36H77.2153ZM95.6305 0.399999H80.4825V4.348H85.9425V20H90.1705V4.348H95.6305V0.399999ZM103.296 20.448C107.972 20.448 111.472 17.004 111.472 12.44C111.472 7.876 107.972 4.46 103.296 4.46C98.62 4.46 95.12 7.876 95.12 12.44C95.12 17.004 98.62 20.448 103.296 20.448ZM103.296 16.584C100.944 16.584 99.264 14.904 99.264 12.44C99.264 10.004 100.944 8.296 103.296 8.296C105.648 8.296 107.328 10.004 107.328 12.44C107.328 14.904 105.648 16.584 103.296 16.584ZM121.309 20.448C125.593 20.448 128.421 17.704 128.421 13.616V4.88H124.333V13.168C124.333 15.296 123.213 16.584 121.309 16.584C119.433 16.584 118.285 15.324 118.285 13.168V4.88H114.197V13.616C114.197 17.704 117.053 20.448 121.309 20.448ZM139.868 4.796C137.908 4.796 136.564 5.412 135.472 6.756L134.744 4.88H132.14V20H136.228V12.16C136.228 9.696 137.124 8.66 139.42 8.66H141.212V4.796H139.868Z" fill="#0B0614"/>
</svg>
