<svg width="40" height="40" viewBox="0 0 40 40" fill="none" xmlns="http://www.w3.org/2000/svg">
<path d="M26.3609 16.6641C26.3717 16.81 26.3717 16.955 26.3717 17.1C26.3717 21.5375 22.9942 26.6508 16.8217 26.6508C14.9201 26.6508 13.1534 26.1 11.6667 25.1433C11.9367 25.1741 12.1967 25.185 12.4776 25.185C14.0467 25.185 15.4909 24.655 16.6451 23.7508C15.1692 23.72 13.9326 22.7533 13.5059 21.4233C13.7134 21.4541 13.9217 21.475 14.1401 21.475C14.4409 21.475 14.7434 21.4333 15.0242 21.3608C13.4851 21.0491 12.3326 19.6983 12.3326 18.0666V18.025C12.7801 18.2741 13.2992 18.43 13.8492 18.4508C12.9451 17.8491 12.3526 16.82 12.3526 15.6558C12.3526 15.0325 12.5184 14.4608 12.8092 13.9625C14.4617 15.9983 16.9459 17.3291 19.7309 17.475C19.6792 17.225 19.6476 16.9658 19.6476 16.7058C19.6476 14.8558 21.1442 13.3491 23.0042 13.3491C23.9709 13.3491 24.8434 13.7541 25.4567 14.4091C26.2151 14.2633 26.9417 13.9825 27.5867 13.5983C27.3376 14.3775 26.8067 15.0325 26.1109 15.4483C26.7867 15.375 27.4417 15.1883 28.0434 14.9283C27.5867 15.5933 27.0159 16.1858 26.3609 16.6641Z" fill="#FF5029"/>
<circle cx="20" cy="20" r="19.5" stroke="#FF5029"/>
</svg>
