<svg width="137" height="16" viewBox="0 0 137 16" fill="none" xmlns="http://www.w3.org/2000/svg">
<path d="M6.688 12.176C10.16 12.176 12.64 9.776 12.64 6.416C12.64 3.072 10.16 0.672 6.688 0.672C3.232 0.672 0.768 3.056 0.768 6.416C0.768 9.792 3.232 12.176 6.688 12.176ZM6.688 11.312C3.76 11.312 1.664 9.312 1.664 6.416C1.664 3.536 3.76 1.536 6.688 1.536C9.632 1.536 11.728 3.536 11.728 6.416C11.728 9.312 9.632 11.312 6.688 11.312ZM6.704 9.328C8.016 9.328 9.088 8.528 9.424 7.296H8.496C8.16 8.016 7.52 8.432 6.704 8.432C5.536 8.432 4.672 7.552 4.672 6.4C4.672 5.248 5.536 4.352 6.704 4.352C7.52 4.352 8.176 4.768 8.512 5.488H9.424C9.072 4.272 8.032 3.472 6.704 3.472C5.024 3.472 3.76 4.72 3.76 6.4C3.76 8.048 5.024 9.328 6.704 9.328ZM20.7774 10.752C24.3774 6.816 24.9214 5.728 24.9214 4.256C24.9214 2.448 23.6094 1.184 21.7054 1.184C19.7694 1.184 18.4254 2.4 18.4254 4.272V4.528H19.7374V4.272C19.7374 3.184 20.5374 2.432 21.7054 2.432C22.8414 2.432 23.5934 3.168 23.5934 4.256C23.5934 5.568 23.0334 6.48 18.1854 11.584V12H25.3374V10.752H20.7774ZM30.9916 12.192C33.5036 12.192 35.0876 10.064 35.0876 6.688C35.0876 3.28 33.5196 1.184 30.9916 1.184C28.4476 1.184 26.8636 3.28 26.8636 6.688C26.8636 10.064 28.4636 12.192 30.9916 12.192ZM30.9916 10.944C29.2476 10.944 28.2076 9.344 28.2076 6.688C28.2076 4.032 29.2636 2.432 30.9916 2.432C32.7036 2.432 33.7596 4.032 33.7596 6.688C33.7596 9.344 32.7036 10.944 30.9916 10.944ZM39.1368 10.752C42.7368 6.816 43.2808 5.728 43.2808 4.256C43.2808 2.448 41.9688 1.184 40.0648 1.184C38.1288 1.184 36.7848 2.4 36.7848 4.272V4.528H38.0968V4.272C38.0968 3.184 38.8968 2.432 40.0648 2.432C41.2008 2.432 41.9528 3.168 41.9528 4.256C41.9528 5.568 41.3928 6.48 36.5448 11.584V12H43.6968V10.752H39.1368ZM47.543 10.752C51.143 6.816 51.687 5.728 51.687 4.256C51.687 2.448 50.375 1.184 48.471 1.184C46.535 1.184 45.191 2.4 45.191 4.272V4.528H46.503V4.272C46.503 3.184 47.303 2.432 48.471 2.432C49.607 2.432 50.359 3.168 50.359 4.256C50.359 5.568 49.799 6.48 44.951 11.584V12H52.103V10.752H47.543Z" fill="white" fill-opacity="0.8"/>
<path d="M59.8968 10.656V6.896H64.4088V5.6H59.8968V2.144H64.8248V0.799999H58.4888V12H65.0008V10.656H59.8968ZM74.121 3.36L73.913 4.704C73.129 3.76 71.945 3.184 70.553 3.184C68.153 3.184 66.313 5.056 66.313 7.456C66.313 9.872 68.153 11.728 70.553 11.728C71.833 11.728 72.937 11.248 73.705 10.448V10.976C73.705 12.896 72.521 14.032 70.793 14.032C69.545 14.032 68.457 13.424 68.073 12.352H66.713C67.177 14.176 68.681 15.28 70.793 15.28C73.433 15.28 75.033 13.584 75.033 10.8V3.376L74.121 3.36ZM70.697 10.432C68.969 10.432 67.689 9.152 67.689 7.456C67.689 5.76 68.969 4.48 70.697 4.48C72.425 4.48 73.689 5.744 73.689 7.456C73.689 9.168 72.441 10.432 70.697 10.432ZM84.0863 3.36L81.1903 9.904L78.1183 3.36H76.6463L80.4863 11.424L80.1823 12.064C79.4783 13.504 79.0783 13.856 77.9103 13.856H77.2223V15.088H78.0383C79.6703 15.088 80.4863 14.416 81.4143 12.368L85.5423 3.36H84.0863ZM91.7333 3.184C90.3413 3.184 89.1573 3.744 88.3573 4.688L88.0853 3.36H87.1413V15.088H88.5013V10.848C89.3013 11.696 90.4373 12.192 91.7333 12.192C94.3093 12.192 96.1653 10.256 96.1653 7.68C96.1653 5.104 94.3093 3.184 91.7333 3.184ZM91.6373 10.88C89.7973 10.88 88.4533 9.504 88.4533 7.68C88.4533 5.872 89.7973 4.496 91.6373 4.496C93.4613 4.496 94.8053 5.856 94.8053 7.68C94.8053 9.52 93.4613 10.88 91.6373 10.88ZM101.71 10.752C100.526 10.752 99.8856 10.112 99.8856 8.944V4.592H102.606V3.36H99.8856V1.536H99.6776L97.0056 4.352V4.592H98.5256V8.992C98.5256 10.864 99.6776 12 101.534 12H102.654V10.752H101.71ZM110.575 0.799999H102.367V2.128H105.775V12H107.167V2.128H110.575V0.799999ZM115.03 12.192C117.638 12.192 119.606 10.272 119.606 7.68C119.606 5.104 117.638 3.184 115.03 3.184C112.406 3.184 110.438 5.088 110.438 7.68C110.438 10.272 112.406 12.192 115.03 12.192ZM115.03 10.88C113.174 10.88 111.83 9.536 111.83 7.68C111.83 5.84 113.174 4.496 115.03 4.496C116.87 4.496 118.214 5.84 118.214 7.696C118.214 9.536 116.87 10.88 115.03 10.88ZM125.353 12.192C127.705 12.192 129.193 10.688 129.193 8.368V3.36H127.833V8.144C127.833 9.824 126.905 10.88 125.353 10.88C123.833 10.88 122.889 9.84 122.889 8.144V3.36H121.529V8.368C121.529 10.688 123.033 12.192 125.353 12.192ZM135.734 3.328C134.486 3.328 133.59 3.792 132.966 4.688L132.758 3.36H131.782V12H133.142V7.312C133.142 5.632 134.038 4.608 135.622 4.608H136.502V3.328H135.734Z" fill="#FF5029"/>
</svg>
